<mxfile host="app.diagrams.net" modified="2023-05-21T14:20:45.131Z" agent="Mozilla/5.0 (Windows NT 10.0; Win64; x64) AppleWebKit/537.36 (KHTML, like Gecko) Chrome/113.0.0.0 Safari/537.36 Edg/113.0.1774.42" etag="tuuJ5sOm3Y01W4tDxUtT" version="21.3.2" type="device">
  <diagram name="Page-1" id="F6viXbcMomMiKL15wAJo">
    <mxGraphModel dx="1050" dy="573" grid="1" gridSize="10" guides="1" tooltips="1" connect="1" arrows="1" fold="1" page="1" pageScale="1" pageWidth="850" pageHeight="1100" math="0" shadow="0">
      <root>
        <mxCell id="0" />
        <mxCell id="1" parent="0" />
        <mxCell id="jAti3D1qRcARjd2IQRaw-4" value="" style="edgeStyle=orthogonalEdgeStyle;rounded=0;orthogonalLoop=1;jettySize=auto;html=1;entryX=0.5;entryY=0;entryDx=0;entryDy=0;fontFamily=Times New Roman;fontSize=14;" parent="1" source="jAti3D1qRcARjd2IQRaw-1" target="jAti3D1qRcARjd2IQRaw-6" edge="1">
          <mxGeometry relative="1" as="geometry">
            <mxPoint x="385" y="100" as="targetPoint" />
          </mxGeometry>
        </mxCell>
        <mxCell id="jAti3D1qRcARjd2IQRaw-1" value="" style="ellipse;html=1;shape=startState;fillColor=#000000;strokeColor=#000000;fontFamily=Times New Roman;fontSize=14;" parent="1" vertex="1">
          <mxGeometry x="370" y="30" width="30" height="30" as="geometry" />
        </mxCell>
        <mxCell id="jAti3D1qRcARjd2IQRaw-56" value="" style="edgeStyle=orthogonalEdgeStyle;rounded=0;orthogonalLoop=1;jettySize=auto;html=1;fontFamily=Times New Roman;fontSize=14;" parent="1" source="jAti3D1qRcARjd2IQRaw-6" target="jAti3D1qRcARjd2IQRaw-54" edge="1">
          <mxGeometry relative="1" as="geometry" />
        </mxCell>
        <mxCell id="jAti3D1qRcARjd2IQRaw-64" value="" style="edgeStyle=orthogonalEdgeStyle;rounded=0;orthogonalLoop=1;jettySize=auto;html=1;fontFamily=Times New Roman;fontSize=14;" parent="1" source="jAti3D1qRcARjd2IQRaw-6" target="jAti3D1qRcARjd2IQRaw-63" edge="1">
          <mxGeometry relative="1" as="geometry" />
        </mxCell>
        <mxCell id="jAti3D1qRcARjd2IQRaw-6" value="Login" style="rounded=1;whiteSpace=wrap;html=1;fontFamily=Times New Roman;fontSize=14;" parent="1" vertex="1">
          <mxGeometry x="340" y="100" width="90" height="30" as="geometry" />
        </mxCell>
        <mxCell id="jAti3D1qRcARjd2IQRaw-36" value="" style="edgeStyle=orthogonalEdgeStyle;rounded=0;orthogonalLoop=1;jettySize=auto;html=1;fontFamily=Times New Roman;fontSize=14;" parent="1" source="jAti3D1qRcARjd2IQRaw-8" target="jAti3D1qRcARjd2IQRaw-30" edge="1">
          <mxGeometry relative="1" as="geometry" />
        </mxCell>
        <mxCell id="jAti3D1qRcARjd2IQRaw-8" value="Admin" style="rounded=1;whiteSpace=wrap;html=1;fontFamily=Times New Roman;fontSize=14;" parent="1" vertex="1">
          <mxGeometry x="80" y="260" width="90" height="30" as="geometry" />
        </mxCell>
        <mxCell id="jAti3D1qRcARjd2IQRaw-42" value="" style="edgeStyle=orthogonalEdgeStyle;rounded=0;orthogonalLoop=1;jettySize=auto;html=1;fontFamily=Times New Roman;fontSize=14;" parent="1" source="jAti3D1qRcARjd2IQRaw-9" target="jAti3D1qRcARjd2IQRaw-22" edge="1">
          <mxGeometry relative="1" as="geometry" />
        </mxCell>
        <mxCell id="jAti3D1qRcARjd2IQRaw-44" value="" style="edgeStyle=orthogonalEdgeStyle;rounded=0;orthogonalLoop=1;jettySize=auto;html=1;fontFamily=Times New Roman;fontSize=14;" parent="1" source="jAti3D1qRcARjd2IQRaw-9" target="jAti3D1qRcARjd2IQRaw-23" edge="1">
          <mxGeometry relative="1" as="geometry">
            <mxPoint x="770" y="275" as="targetPoint" />
          </mxGeometry>
        </mxCell>
        <mxCell id="jAti3D1qRcARjd2IQRaw-9" value="Coordinator" style="rounded=1;whiteSpace=wrap;html=1;fontFamily=Times New Roman;fontSize=14;" parent="1" vertex="1">
          <mxGeometry x="600" y="260" width="90" height="30" as="geometry" />
        </mxCell>
        <mxCell id="jAti3D1qRcARjd2IQRaw-39" value="" style="edgeStyle=orthogonalEdgeStyle;rounded=0;orthogonalLoop=1;jettySize=auto;html=1;fontFamily=Times New Roman;fontSize=14;" parent="1" source="jAti3D1qRcARjd2IQRaw-10" target="jAti3D1qRcARjd2IQRaw-12" edge="1">
          <mxGeometry relative="1" as="geometry" />
        </mxCell>
        <mxCell id="jAti3D1qRcARjd2IQRaw-10" value="Student" style="rounded=1;whiteSpace=wrap;html=1;fontFamily=Times New Roman;fontSize=14;" parent="1" vertex="1">
          <mxGeometry x="340" y="260" width="90" height="30" as="geometry" />
        </mxCell>
        <mxCell id="jAti3D1qRcARjd2IQRaw-45" value="" style="edgeStyle=orthogonalEdgeStyle;rounded=0;orthogonalLoop=1;jettySize=auto;html=1;fontFamily=Times New Roman;fontSize=14;" parent="1" source="jAti3D1qRcARjd2IQRaw-12" target="jAti3D1qRcARjd2IQRaw-27" edge="1">
          <mxGeometry relative="1" as="geometry" />
        </mxCell>
        <mxCell id="jAti3D1qRcARjd2IQRaw-12" value="Unplaced" style="rounded=1;whiteSpace=wrap;html=1;fontFamily=Times New Roman;fontSize=14;" parent="1" vertex="1">
          <mxGeometry x="340" y="340" width="90" height="30" as="geometry" />
        </mxCell>
        <mxCell id="jAti3D1qRcARjd2IQRaw-92" value="" style="edgeStyle=orthogonalEdgeStyle;rounded=0;orthogonalLoop=1;jettySize=auto;html=1;fontFamily=Times New Roman;fontSize=14;" parent="1" source="jAti3D1qRcARjd2IQRaw-13" target="jAti3D1qRcARjd2IQRaw-77" edge="1">
          <mxGeometry relative="1" as="geometry">
            <mxPoint x="385" y="750" as="targetPoint" />
          </mxGeometry>
        </mxCell>
        <mxCell id="jAti3D1qRcARjd2IQRaw-13" value="Placed" style="rounded=1;whiteSpace=wrap;html=1;fontFamily=Times New Roman;fontSize=14;" parent="1" vertex="1">
          <mxGeometry x="340" y="590" width="90" height="30" as="geometry" />
        </mxCell>
        <mxCell id="jAti3D1qRcARjd2IQRaw-81" value="" style="edgeStyle=orthogonalEdgeStyle;rounded=0;orthogonalLoop=1;jettySize=auto;html=1;fontFamily=Times New Roman;fontSize=14;" parent="1" source="jAti3D1qRcARjd2IQRaw-15" target="jAti3D1qRcARjd2IQRaw-77" edge="1">
          <mxGeometry relative="1" as="geometry">
            <mxPoint x="445" y="730" as="targetPoint" />
            <Array as="points">
              <mxPoint x="525" y="680" />
              <mxPoint x="385" y="680" />
            </Array>
          </mxGeometry>
        </mxCell>
        <mxCell id="jAti3D1qRcARjd2IQRaw-15" value="Rejected" style="rounded=1;whiteSpace=wrap;html=1;fontFamily=Times New Roman;fontSize=14;" parent="1" vertex="1">
          <mxGeometry x="480" y="590" width="90" height="30" as="geometry" />
        </mxCell>
        <mxCell id="jAti3D1qRcARjd2IQRaw-83" value="" style="edgeStyle=orthogonalEdgeStyle;rounded=0;orthogonalLoop=1;jettySize=auto;html=1;fontFamily=Times New Roman;fontSize=14;" parent="1" source="jAti3D1qRcARjd2IQRaw-18" target="jAti3D1qRcARjd2IQRaw-77" edge="1">
          <mxGeometry relative="1" as="geometry">
            <mxPoint x="305" y="730" as="targetPoint" />
            <Array as="points">
              <mxPoint x="240" y="680" />
              <mxPoint x="385" y="680" />
            </Array>
          </mxGeometry>
        </mxCell>
        <mxCell id="jAti3D1qRcARjd2IQRaw-18" value="Withdrawn" style="rounded=1;whiteSpace=wrap;html=1;fontFamily=Times New Roman;fontSize=14;" parent="1" vertex="1">
          <mxGeometry x="200" y="590" width="90" height="30" as="geometry" />
        </mxCell>
        <mxCell id="jAti3D1qRcARjd2IQRaw-47" value="" style="edgeStyle=orthogonalEdgeStyle;rounded=0;orthogonalLoop=1;jettySize=auto;html=1;fontFamily=Times New Roman;fontSize=14;" parent="1" source="jAti3D1qRcARjd2IQRaw-20" target="jAti3D1qRcARjd2IQRaw-18" edge="1">
          <mxGeometry relative="1" as="geometry" />
        </mxCell>
        <mxCell id="jAti3D1qRcARjd2IQRaw-49" value="" style="edgeStyle=orthogonalEdgeStyle;rounded=0;orthogonalLoop=1;jettySize=auto;html=1;entryX=0.5;entryY=0;entryDx=0;entryDy=0;fontFamily=Times New Roman;fontSize=14;" parent="1" source="jAti3D1qRcARjd2IQRaw-20" target="jAti3D1qRcARjd2IQRaw-15" edge="1">
          <mxGeometry relative="1" as="geometry">
            <mxPoint x="510" y="525" as="targetPoint" />
          </mxGeometry>
        </mxCell>
        <mxCell id="jAti3D1qRcARjd2IQRaw-90" value="" style="edgeStyle=orthogonalEdgeStyle;rounded=0;orthogonalLoop=1;jettySize=auto;html=1;fontFamily=Times New Roman;fontSize=14;" parent="1" source="jAti3D1qRcARjd2IQRaw-20" target="jAti3D1qRcARjd2IQRaw-13" edge="1">
          <mxGeometry relative="1" as="geometry" />
        </mxCell>
        <mxCell id="jAti3D1qRcARjd2IQRaw-20" value="Applied" style="rounded=1;whiteSpace=wrap;html=1;fontFamily=Times New Roman;fontSize=14;" parent="1" vertex="1">
          <mxGeometry x="340" y="510" width="90" height="30" as="geometry" />
        </mxCell>
        <mxCell id="jAti3D1qRcARjd2IQRaw-50" value="" style="edgeStyle=orthogonalEdgeStyle;rounded=0;orthogonalLoop=1;jettySize=auto;html=1;fontFamily=Times New Roman;fontSize=14;" parent="1" source="jAti3D1qRcARjd2IQRaw-22" target="jAti3D1qRcARjd2IQRaw-29" edge="1">
          <mxGeometry relative="1" as="geometry" />
        </mxCell>
        <mxCell id="jAti3D1qRcARjd2IQRaw-22" value="Hiring" style="rounded=1;whiteSpace=wrap;html=1;fontFamily=Times New Roman;fontSize=14;" parent="1" vertex="1">
          <mxGeometry x="600" y="380" width="90" height="30" as="geometry" />
        </mxCell>
        <mxCell id="jAti3D1qRcARjd2IQRaw-23" value="Not Hiring" style="rounded=1;whiteSpace=wrap;html=1;fontFamily=Times New Roman;fontSize=14;" parent="1" vertex="1">
          <mxGeometry x="750" y="380" width="90" height="30" as="geometry" />
        </mxCell>
        <mxCell id="jAti3D1qRcARjd2IQRaw-87" value="" style="edgeStyle=orthogonalEdgeStyle;rounded=0;orthogonalLoop=1;jettySize=auto;html=1;fontFamily=Times New Roman;fontSize=14;" parent="1" source="jAti3D1qRcARjd2IQRaw-24" target="jAti3D1qRcARjd2IQRaw-77" edge="1">
          <mxGeometry relative="1" as="geometry">
            <mxPoint x="795" y="580" as="targetPoint" />
            <Array as="points">
              <mxPoint x="795" y="680" />
              <mxPoint x="385" y="680" />
            </Array>
          </mxGeometry>
        </mxCell>
        <mxCell id="jAti3D1qRcARjd2IQRaw-24" value="Withdrawn" style="rounded=1;whiteSpace=wrap;html=1;fontFamily=Times New Roman;fontSize=14;" parent="1" vertex="1">
          <mxGeometry x="750" y="470" width="90" height="30" as="geometry" />
        </mxCell>
        <mxCell id="jAti3D1qRcARjd2IQRaw-46" value="" style="edgeStyle=orthogonalEdgeStyle;rounded=0;orthogonalLoop=1;jettySize=auto;html=1;fontFamily=Times New Roman;fontSize=14;" parent="1" source="jAti3D1qRcARjd2IQRaw-27" target="jAti3D1qRcARjd2IQRaw-20" edge="1">
          <mxGeometry relative="1" as="geometry" />
        </mxCell>
        <mxCell id="jAti3D1qRcARjd2IQRaw-27" value="Eligible" style="rounded=1;whiteSpace=wrap;html=1;fontFamily=Times New Roman;fontSize=14;" parent="1" vertex="1">
          <mxGeometry x="340" y="430" width="90" height="30" as="geometry" />
        </mxCell>
        <mxCell id="jAti3D1qRcARjd2IQRaw-51" value="" style="edgeStyle=orthogonalEdgeStyle;rounded=0;orthogonalLoop=1;jettySize=auto;html=1;fontFamily=Times New Roman;fontSize=14;" parent="1" source="jAti3D1qRcARjd2IQRaw-29" target="jAti3D1qRcARjd2IQRaw-24" edge="1">
          <mxGeometry relative="1" as="geometry" />
        </mxCell>
        <mxCell id="jAti3D1qRcARjd2IQRaw-53" value="" style="edgeStyle=orthogonalEdgeStyle;rounded=0;orthogonalLoop=1;jettySize=auto;html=1;fontFamily=Times New Roman;fontSize=14;" parent="1" source="jAti3D1qRcARjd2IQRaw-29" target="jAti3D1qRcARjd2IQRaw-52" edge="1">
          <mxGeometry relative="1" as="geometry" />
        </mxCell>
        <mxCell id="jAti3D1qRcARjd2IQRaw-29" value="Applicants Review" style="rounded=1;whiteSpace=wrap;html=1;fontFamily=Times New Roman;fontSize=14;" parent="1" vertex="1">
          <mxGeometry x="600" y="470" width="90" height="30" as="geometry" />
        </mxCell>
        <mxCell id="jAti3D1qRcARjd2IQRaw-37" value="" style="edgeStyle=orthogonalEdgeStyle;rounded=0;orthogonalLoop=1;jettySize=auto;html=1;fontFamily=Times New Roman;fontSize=14;" parent="1" source="jAti3D1qRcARjd2IQRaw-30" target="jAti3D1qRcARjd2IQRaw-31" edge="1">
          <mxGeometry relative="1" as="geometry" />
        </mxCell>
        <mxCell id="jAti3D1qRcARjd2IQRaw-30" value="Validate" style="rounded=1;whiteSpace=wrap;html=1;fontFamily=Times New Roman;fontSize=14;" parent="1" vertex="1">
          <mxGeometry x="80" y="350" width="90" height="30" as="geometry" />
        </mxCell>
        <mxCell id="jAti3D1qRcARjd2IQRaw-38" value="" style="edgeStyle=orthogonalEdgeStyle;rounded=0;orthogonalLoop=1;jettySize=auto;html=1;fontFamily=Times New Roman;fontSize=14;" parent="1" source="jAti3D1qRcARjd2IQRaw-31" target="jAti3D1qRcARjd2IQRaw-32" edge="1">
          <mxGeometry relative="1" as="geometry" />
        </mxCell>
        <mxCell id="jAti3D1qRcARjd2IQRaw-31" value="Evaluation" style="rounded=1;whiteSpace=wrap;html=1;fontFamily=Times New Roman;fontSize=14;" parent="1" vertex="1">
          <mxGeometry x="80" y="430" width="90" height="30" as="geometry" />
        </mxCell>
        <mxCell id="jAti3D1qRcARjd2IQRaw-79" value="" style="edgeStyle=orthogonalEdgeStyle;rounded=0;orthogonalLoop=1;jettySize=auto;html=1;fontFamily=Times New Roman;fontSize=14;" parent="1" source="jAti3D1qRcARjd2IQRaw-32" target="jAti3D1qRcARjd2IQRaw-77" edge="1">
          <mxGeometry relative="1" as="geometry">
            <mxPoint x="125" y="625" as="targetPoint" />
            <Array as="points">
              <mxPoint x="125" y="680" />
              <mxPoint x="385" y="680" />
            </Array>
          </mxGeometry>
        </mxCell>
        <mxCell id="jAti3D1qRcARjd2IQRaw-32" value="Manage" style="rounded=1;whiteSpace=wrap;html=1;fontFamily=Times New Roman;fontSize=14;" parent="1" vertex="1">
          <mxGeometry x="80" y="500" width="90" height="30" as="geometry" />
        </mxCell>
        <mxCell id="jAti3D1qRcARjd2IQRaw-85" value="" style="edgeStyle=orthogonalEdgeStyle;rounded=0;orthogonalLoop=1;jettySize=auto;html=1;fontFamily=Times New Roman;fontSize=14;" parent="1" source="jAti3D1qRcARjd2IQRaw-52" target="jAti3D1qRcARjd2IQRaw-77" edge="1">
          <mxGeometry relative="1" as="geometry">
            <mxPoint x="645" y="670" as="targetPoint" />
            <Array as="points">
              <mxPoint x="645" y="680" />
              <mxPoint x="385" y="680" />
            </Array>
          </mxGeometry>
        </mxCell>
        <mxCell id="jAti3D1qRcARjd2IQRaw-52" value="Offering" style="rounded=1;whiteSpace=wrap;html=1;fontFamily=Times New Roman;fontSize=14;" parent="1" vertex="1">
          <mxGeometry x="600" y="560" width="90" height="30" as="geometry" />
        </mxCell>
        <mxCell id="jAti3D1qRcARjd2IQRaw-57" value="" style="edgeStyle=orthogonalEdgeStyle;rounded=0;orthogonalLoop=1;jettySize=auto;html=1;fontFamily=Times New Roman;fontSize=14;" parent="1" source="jAti3D1qRcARjd2IQRaw-54" target="jAti3D1qRcARjd2IQRaw-10" edge="1">
          <mxGeometry relative="1" as="geometry" />
        </mxCell>
        <mxCell id="jAti3D1qRcARjd2IQRaw-60" value="" style="edgeStyle=orthogonalEdgeStyle;rounded=0;orthogonalLoop=1;jettySize=auto;html=1;fontFamily=Times New Roman;fontSize=14;" parent="1" source="jAti3D1qRcARjd2IQRaw-54" target="jAti3D1qRcARjd2IQRaw-8" edge="1">
          <mxGeometry relative="1" as="geometry">
            <mxPoint x="205" y="185" as="targetPoint" />
            <Array as="points">
              <mxPoint x="385" y="210" />
              <mxPoint x="125" y="210" />
            </Array>
          </mxGeometry>
        </mxCell>
        <mxCell id="jAti3D1qRcARjd2IQRaw-62" value="" style="edgeStyle=orthogonalEdgeStyle;rounded=0;orthogonalLoop=1;jettySize=auto;html=1;entryX=0.5;entryY=0;entryDx=0;entryDy=0;fontFamily=Times New Roman;fontSize=14;" parent="1" source="jAti3D1qRcARjd2IQRaw-54" target="jAti3D1qRcARjd2IQRaw-9" edge="1">
          <mxGeometry relative="1" as="geometry">
            <mxPoint x="565" y="185" as="targetPoint" />
            <Array as="points">
              <mxPoint x="385" y="210" />
              <mxPoint x="645" y="210" />
            </Array>
          </mxGeometry>
        </mxCell>
        <mxCell id="jAti3D1qRcARjd2IQRaw-54" value="" style="shape=line;html=1;strokeWidth=6;strokeColor=#000000;fontFamily=Times New Roman;fontSize=14;" parent="1" vertex="1">
          <mxGeometry x="285" y="180" width="200" height="10" as="geometry" />
        </mxCell>
        <mxCell id="jAti3D1qRcARjd2IQRaw-63" value="Invalid User" style="rounded=1;whiteSpace=wrap;html=1;fontFamily=Times New Roman;fontSize=14;" parent="1" vertex="1">
          <mxGeometry x="530" y="100" width="90" height="30" as="geometry" />
        </mxCell>
        <mxCell id="jAti3D1qRcARjd2IQRaw-96" value="" style="edgeStyle=orthogonalEdgeStyle;rounded=0;orthogonalLoop=1;jettySize=auto;html=1;fontFamily=Times New Roman;fontSize=14;" parent="1" source="jAti3D1qRcARjd2IQRaw-77" target="jAti3D1qRcARjd2IQRaw-94" edge="1">
          <mxGeometry relative="1" as="geometry" />
        </mxCell>
        <mxCell id="jAti3D1qRcARjd2IQRaw-77" value="Logout" style="rounded=1;whiteSpace=wrap;html=1;fontFamily=Times New Roman;fontSize=14;" parent="1" vertex="1">
          <mxGeometry x="340" y="730" width="90" height="30" as="geometry" />
        </mxCell>
        <mxCell id="jAti3D1qRcARjd2IQRaw-94" value="" style="ellipse;html=1;shape=endState;fillColor=#000000;strokeColor=#000000;fontFamily=Times New Roman;fontSize=14;" parent="1" vertex="1">
          <mxGeometry x="370" y="810" width="30" height="30" as="geometry" />
        </mxCell>
        <mxCell id="jAti3D1qRcARjd2IQRaw-98" value="login failed" style="text;html=1;align=center;verticalAlign=middle;resizable=0;points=[];autosize=1;strokeColor=none;fillColor=none;fontFamily=Times New Roman;fontSize=14;" parent="1" vertex="1">
          <mxGeometry x="435" y="88" width="90" height="30" as="geometry" />
        </mxCell>
        <mxCell id="jAti3D1qRcARjd2IQRaw-99" value="login successful" style="text;html=1;align=center;verticalAlign=middle;resizable=0;points=[];autosize=1;strokeColor=none;fillColor=none;fontFamily=Times New Roman;fontSize=14;" parent="1" vertex="1">
          <mxGeometry x="375" y="138" width="110" height="30" as="geometry" />
        </mxCell>
        <mxCell id="jAti3D1qRcARjd2IQRaw-100" value="[Check Eligibility]" style="text;html=1;align=center;verticalAlign=middle;resizable=0;points=[];autosize=1;strokeColor=none;fillColor=none;fontFamily=Times New Roman;fontSize=14;" parent="1" vertex="1">
          <mxGeometry x="270" y="388" width="130" height="30" as="geometry" />
        </mxCell>
        <mxCell id="jAti3D1qRcARjd2IQRaw-104" value="[Not Interested]" style="text;html=1;align=center;verticalAlign=middle;resizable=0;points=[];autosize=1;strokeColor=none;fillColor=none;fontFamily=Times New Roman;fontSize=14;" parent="1" vertex="1">
          <mxGeometry x="225" y="498" width="110" height="30" as="geometry" />
        </mxCell>
        <mxCell id="jAti3D1qRcARjd2IQRaw-105" value="[Qualify]" style="text;html=1;align=center;verticalAlign=middle;resizable=0;points=[];autosize=1;strokeColor=none;fillColor=none;fontFamily=Times New Roman;fontSize=14;" parent="1" vertex="1">
          <mxGeometry x="370" y="550" width="80" height="30" as="geometry" />
        </mxCell>
        <mxCell id="jAti3D1qRcARjd2IQRaw-106" value="[Not Qualify]" style="text;html=1;align=center;verticalAlign=middle;resizable=0;points=[];autosize=1;strokeColor=none;fillColor=none;fontFamily=Times New Roman;fontSize=14;" parent="1" vertex="1">
          <mxGeometry x="441" y="498" width="100" height="30" as="geometry" />
        </mxCell>
        <mxCell id="jAti3D1qRcARjd2IQRaw-107" value="[Applications Receive]" style="text;html=1;align=center;verticalAlign=middle;resizable=0;points=[];autosize=1;strokeColor=none;fillColor=none;fontFamily=Times New Roman;fontSize=14;" parent="1" vertex="1">
          <mxGeometry x="505" y="418" width="150" height="30" as="geometry" />
        </mxCell>
        <mxCell id="jAti3D1qRcARjd2IQRaw-108" value="[Recruiting]" style="text;html=1;align=center;verticalAlign=middle;resizable=0;points=[];autosize=1;strokeColor=none;fillColor=none;fontFamily=Times New Roman;fontSize=14;" parent="1" vertex="1">
          <mxGeometry x="565" y="310" width="90" height="30" as="geometry" />
        </mxCell>
        <mxCell id="jAti3D1qRcARjd2IQRaw-109" value="[Not Recruiting]" style="text;html=1;align=center;verticalAlign=middle;resizable=0;points=[];autosize=1;strokeColor=none;fillColor=none;fontFamily=Times New Roman;fontSize=14;" parent="1" vertex="1">
          <mxGeometry x="690" y="248" width="120" height="30" as="geometry" />
        </mxCell>
      </root>
    </mxGraphModel>
  </diagram>
</mxfile>
